# xmcd
#
# Track frame offsets:
#	150
#	18984
#	34795
#	52123
#	63783
#	78871
#	92643
#	110443
#	126771
#	143781
#	163038
#	176996
#	196412
#	207680
#	221078
#	236062
#	251920
#	266462
#	280161
#	297038
#	312514
#
# Disc length: 4358 seconds
#
# Revision: 0
# Processed by: cddbd v1.5.1PL0 Copyright (c) Steve Scherf et al.
# Submitted via: dBpowerAMP V4.0
#
DISCID=41110415
DTITLE=Manolo Galvan - Coleccion de Oro
DYEAR=1900
DGENRE=Balada
TTITLE0=poema del alma
TTITLE1=deja de llorar
TTITLE2=te quise,te quiero y te querre
TTITLE3=el lamento
TTITLE4=porque te quiero tanto
TTITLE5=mujer
TTITLE6=porque te marchas abuelo
TTITLE7=solo pienso en ti
TTITLE8=adios
TTITLE9=tanto amor
TTITLE10=ella es motivo de volver
TTITLE11=a quien
TTITLE12=podría
TTITLE13=vuelve tu cabeza atráz
TTITLE14=Hijo de ramera (hoy no me levanto)
TTITLE15=pequeño gorrión
TTITLE16=tu silencio
TTITLE17=el manzano
TTITLE18=Maria Magdalena
TTITLE19=cerca de un rio
TTITLE20=en cualquier lugar
EXTD=
EXTT0=
EXTT1=
EXTT2=
EXTT3=
EXTT4=
EXTT5=
EXTT6=
EXTT7=
EXTT8=
EXTT9=
EXTT10=
EXTT11=
EXTT12=
EXTT13=
EXTT14=
EXTT15=
EXTT16=
EXTT17=
EXTT18=
EXTT19=
EXTT20=
PLAYORDER=
